<mxfile host="Electron" modified="2024-02-10T05:15:24.637Z" agent="Mozilla/5.0 (Windows NT 10.0; Win64; x64) AppleWebKit/537.36 (KHTML, like Gecko) draw.io/23.0.2 Chrome/120.0.6099.109 Electron/28.1.0 Safari/537.36" etag="MRaNMIznvMAEU6VnW8ou" version="23.0.2" type="device">
  <diagram name="Page-1" id="r5fSbcHTFFjfGL8UQ65w">
    <mxGraphModel dx="1118" dy="675" grid="1" gridSize="10" guides="1" tooltips="1" connect="1" arrows="1" fold="1" page="1" pageScale="1" pageWidth="850" pageHeight="1100" math="0" shadow="0">
      <root>
        <mxCell id="0" />
        <mxCell id="1" parent="0" />
        <mxCell id="fwCqymdrBDUFDbBmZqoj-2" value="Start" style="rounded=1;whiteSpace=wrap;html=1;arcSize=50;" parent="1" vertex="1">
          <mxGeometry x="365" y="110" width="120" height="30" as="geometry" />
        </mxCell>
        <mxCell id="fwCqymdrBDUFDbBmZqoj-3" value="Flowchart by Christopher Frosst" style="shape=note;whiteSpace=wrap;html=1;backgroundOutline=1;darkOpacity=0.05;" parent="1" vertex="1">
          <mxGeometry x="305" y="20" width="240" height="40" as="geometry" />
        </mxCell>
        <mxCell id="fwCqymdrBDUFDbBmZqoj-4" value="" style="endArrow=classic;html=1;rounded=0;exitX=0.5;exitY=1;exitDx=0;exitDy=0;entryX=0.5;entryY=0;entryDx=0;entryDy=0;" parent="1" source="fwCqymdrBDUFDbBmZqoj-2" target="fwCqymdrBDUFDbBmZqoj-7" edge="1">
          <mxGeometry width="50" height="50" relative="1" as="geometry">
            <mxPoint x="400" y="390" as="sourcePoint" />
            <mxPoint x="426.25" y="160" as="targetPoint" />
          </mxGeometry>
        </mxCell>
        <mxCell id="fwCqymdrBDUFDbBmZqoj-7" value="Declarations&lt;br&gt;int bact, min, sec&lt;br&gt;double conversion, total&lt;br&gt;&lt;div style=&quot;text-align: left;&quot;&gt;&lt;/div&gt;" style="rounded=0;whiteSpace=wrap;html=1;" parent="1" vertex="1">
          <mxGeometry x="353" y="190" width="145" height="100" as="geometry" />
        </mxCell>
        <mxCell id="fwCqymdrBDUFDbBmZqoj-9" value="" style="endArrow=classic;html=1;rounded=0;exitX=0.5;exitY=1;exitDx=0;exitDy=0;entryX=0.5;entryY=0;entryDx=0;entryDy=0;" parent="1" source="fwCqymdrBDUFDbBmZqoj-7" edge="1">
          <mxGeometry width="50" height="50" relative="1" as="geometry">
            <mxPoint x="400" y="390" as="sourcePoint" />
            <mxPoint x="425.5" y="330" as="targetPoint" />
          </mxGeometry>
        </mxCell>
        <mxCell id="fwCqymdrBDUFDbBmZqoj-10" value="message = &quot;As the bacteria doubles every 15 minutes, there are + total + bacteria after + m + minutes and + s + seconds" style="rounded=0;whiteSpace=wrap;html=1;" parent="1" vertex="1">
          <mxGeometry x="232.5" y="700" width="385" height="60" as="geometry" />
        </mxCell>
        <mxCell id="fwCqymdrBDUFDbBmZqoj-12" value="output message" style="shape=parallelogram;perimeter=parallelogramPerimeter;whiteSpace=wrap;html=1;fixedSize=1;" parent="1" vertex="1">
          <mxGeometry x="325" y="820" width="200" height="40" as="geometry" />
        </mxCell>
        <mxCell id="fwCqymdrBDUFDbBmZqoj-13" value="" style="endArrow=classic;html=1;rounded=0;exitX=0.5;exitY=1;exitDx=0;exitDy=0;entryX=0.5;entryY=0;entryDx=0;entryDy=0;" parent="1" source="fwCqymdrBDUFDbBmZqoj-10" target="fwCqymdrBDUFDbBmZqoj-12" edge="1">
          <mxGeometry width="50" height="50" relative="1" as="geometry">
            <mxPoint x="200" y="640" as="sourcePoint" />
            <mxPoint x="250" y="590" as="targetPoint" />
          </mxGeometry>
        </mxCell>
        <mxCell id="fwCqymdrBDUFDbBmZqoj-14" value="Stop" style="rounded=1;whiteSpace=wrap;html=1;arcSize=50;" parent="1" vertex="1">
          <mxGeometry x="365.5" y="910" width="120" height="30" as="geometry" />
        </mxCell>
        <mxCell id="fwCqymdrBDUFDbBmZqoj-15" value="" style="endArrow=classic;html=1;rounded=0;exitX=0.5;exitY=1;exitDx=0;exitDy=0;entryX=0.5;entryY=0;entryDx=0;entryDy=0;" parent="1" source="fwCqymdrBDUFDbBmZqoj-12" target="fwCqymdrBDUFDbBmZqoj-14" edge="1">
          <mxGeometry width="50" height="50" relative="1" as="geometry">
            <mxPoint x="260" y="680" as="sourcePoint" />
            <mxPoint x="310" y="630" as="targetPoint" />
          </mxGeometry>
        </mxCell>
        <mxCell id="wcQmQYIcNUSv99JXAIk1-1" value="bact = InputData.getBact(&quot;Input # of bacteria)&quot;" style="shape=process;whiteSpace=wrap;html=1;backgroundOutline=1;" vertex="1" parent="1">
          <mxGeometry x="285" y="330" width="280" height="30" as="geometry" />
        </mxCell>
        <mxCell id="wcQmQYIcNUSv99JXAIk1-2" value="petridish.setBact(bact)" style="shape=process;whiteSpace=wrap;html=1;backgroundOutline=1;" vertex="1" parent="1">
          <mxGeometry x="340" y="400" width="170" height="20" as="geometry" />
        </mxCell>
        <mxCell id="wcQmQYIcNUSv99JXAIk1-3" value="min = InputData.getMin(&quot;Input # of minutes&quot;)" style="shape=process;whiteSpace=wrap;html=1;backgroundOutline=1;" vertex="1" parent="1">
          <mxGeometry x="250" y="450" width="350" height="30" as="geometry" />
        </mxCell>
        <mxCell id="wcQmQYIcNUSv99JXAIk1-4" value="petridish.setMin(min)" style="shape=process;whiteSpace=wrap;html=1;backgroundOutline=1;" vertex="1" parent="1">
          <mxGeometry x="335.5" y="510" width="180" height="20" as="geometry" />
        </mxCell>
        <mxCell id="wcQmQYIcNUSv99JXAIk1-5" value="sec = InputData.getSec(&quot;Input # of second)&quot;" style="shape=process;whiteSpace=wrap;html=1;backgroundOutline=1;" vertex="1" parent="1">
          <mxGeometry x="273" y="570" width="305" height="30" as="geometry" />
        </mxCell>
        <mxCell id="wcQmQYIcNUSv99JXAIk1-6" value="petridish.getTotal()" style="shape=process;whiteSpace=wrap;html=1;backgroundOutline=1;" vertex="1" parent="1">
          <mxGeometry x="275" y="640" width="300" height="20" as="geometry" />
        </mxCell>
        <mxCell id="wcQmQYIcNUSv99JXAIk1-7" value="" style="endArrow=classic;html=1;rounded=0;exitX=0.5;exitY=1;exitDx=0;exitDy=0;entryX=0.5;entryY=0;entryDx=0;entryDy=0;" edge="1" parent="1" source="wcQmQYIcNUSv99JXAIk1-1" target="wcQmQYIcNUSv99JXAIk1-2">
          <mxGeometry width="50" height="50" relative="1" as="geometry">
            <mxPoint x="400" y="570" as="sourcePoint" />
            <mxPoint x="450" y="520" as="targetPoint" />
          </mxGeometry>
        </mxCell>
        <mxCell id="wcQmQYIcNUSv99JXAIk1-8" value="" style="endArrow=classic;html=1;rounded=0;exitX=0.5;exitY=1;exitDx=0;exitDy=0;entryX=0.5;entryY=0;entryDx=0;entryDy=0;" edge="1" parent="1" source="wcQmQYIcNUSv99JXAIk1-2" target="wcQmQYIcNUSv99JXAIk1-3">
          <mxGeometry width="50" height="50" relative="1" as="geometry">
            <mxPoint x="400" y="570" as="sourcePoint" />
            <mxPoint x="450" y="520" as="targetPoint" />
          </mxGeometry>
        </mxCell>
        <mxCell id="wcQmQYIcNUSv99JXAIk1-9" value="" style="endArrow=classic;html=1;rounded=0;exitX=0.5;exitY=1;exitDx=0;exitDy=0;entryX=0.5;entryY=0;entryDx=0;entryDy=0;" edge="1" parent="1" source="wcQmQYIcNUSv99JXAIk1-3" target="wcQmQYIcNUSv99JXAIk1-4">
          <mxGeometry width="50" height="50" relative="1" as="geometry">
            <mxPoint x="400" y="570" as="sourcePoint" />
            <mxPoint x="450" y="520" as="targetPoint" />
          </mxGeometry>
        </mxCell>
        <mxCell id="wcQmQYIcNUSv99JXAIk1-10" value="" style="endArrow=classic;html=1;rounded=0;exitX=0.5;exitY=1;exitDx=0;exitDy=0;entryX=0.5;entryY=0;entryDx=0;entryDy=0;" edge="1" parent="1" source="wcQmQYIcNUSv99JXAIk1-4" target="wcQmQYIcNUSv99JXAIk1-5">
          <mxGeometry width="50" height="50" relative="1" as="geometry">
            <mxPoint x="400" y="570" as="sourcePoint" />
            <mxPoint x="450" y="520" as="targetPoint" />
          </mxGeometry>
        </mxCell>
        <mxCell id="wcQmQYIcNUSv99JXAIk1-11" value="" style="endArrow=classic;html=1;rounded=0;exitX=0.5;exitY=1;exitDx=0;exitDy=0;entryX=0.5;entryY=0;entryDx=0;entryDy=0;" edge="1" parent="1" source="wcQmQYIcNUSv99JXAIk1-5" target="wcQmQYIcNUSv99JXAIk1-6">
          <mxGeometry width="50" height="50" relative="1" as="geometry">
            <mxPoint x="400" y="570" as="sourcePoint" />
            <mxPoint x="450" y="520" as="targetPoint" />
          </mxGeometry>
        </mxCell>
        <mxCell id="wcQmQYIcNUSv99JXAIk1-12" value="" style="endArrow=classic;html=1;rounded=0;exitX=0.5;exitY=1;exitDx=0;exitDy=0;entryX=0.5;entryY=0;entryDx=0;entryDy=0;" edge="1" parent="1" source="wcQmQYIcNUSv99JXAIk1-6" target="fwCqymdrBDUFDbBmZqoj-10">
          <mxGeometry width="50" height="50" relative="1" as="geometry">
            <mxPoint x="400" y="570" as="sourcePoint" />
            <mxPoint x="450" y="520" as="targetPoint" />
          </mxGeometry>
        </mxCell>
        <mxCell id="wcQmQYIcNUSv99JXAIk1-13" value="inputNumber(userPrompt)" style="ellipse;whiteSpace=wrap;html=1;" vertex="1" parent="1">
          <mxGeometry x="-37.5" y="20" width="270" height="50" as="geometry" />
        </mxCell>
        <mxCell id="wcQmQYIcNUSv99JXAIk1-14" value="Declarations&lt;br&gt;&lt;span style=&quot;white-space: pre;&quot;&gt;&#x9;&lt;/span&gt;String inputNumber" style="rounded=0;whiteSpace=wrap;html=1;align=left;" vertex="1" parent="1">
          <mxGeometry x="7.5" y="110" width="180" height="60" as="geometry" />
        </mxCell>
        <mxCell id="wcQmQYIcNUSv99JXAIk1-15" value="output userPrompt&lt;br&gt;input inputNumber" style="shape=parallelogram;perimeter=parallelogramPerimeter;whiteSpace=wrap;html=1;fixedSize=1;" vertex="1" parent="1">
          <mxGeometry x="-2.5" y="200" width="200" height="60" as="geometry" />
        </mxCell>
        <mxCell id="wcQmQYIcNUSv99JXAIk1-16" value="return inputNumber" style="ellipse;whiteSpace=wrap;html=1;" vertex="1" parent="1">
          <mxGeometry x="-37.5" y="300" width="270" height="50" as="geometry" />
        </mxCell>
        <mxCell id="wcQmQYIcNUSv99JXAIk1-17" value="" style="endArrow=classic;html=1;rounded=0;exitX=0.5;exitY=1;exitDx=0;exitDy=0;entryX=0.5;entryY=0;entryDx=0;entryDy=0;" edge="1" parent="1" source="wcQmQYIcNUSv99JXAIk1-13" target="wcQmQYIcNUSv99JXAIk1-14">
          <mxGeometry width="50" height="50" relative="1" as="geometry">
            <mxPoint x="70" y="270" as="sourcePoint" />
            <mxPoint x="120" y="220" as="targetPoint" />
          </mxGeometry>
        </mxCell>
        <mxCell id="wcQmQYIcNUSv99JXAIk1-18" value="" style="endArrow=classic;html=1;rounded=0;exitX=0.5;exitY=1;exitDx=0;exitDy=0;entryX=0.5;entryY=0;entryDx=0;entryDy=0;" edge="1" parent="1" source="wcQmQYIcNUSv99JXAIk1-14" target="wcQmQYIcNUSv99JXAIk1-15">
          <mxGeometry width="50" height="50" relative="1" as="geometry">
            <mxPoint x="70" y="270" as="sourcePoint" />
            <mxPoint x="120" y="220" as="targetPoint" />
          </mxGeometry>
        </mxCell>
        <mxCell id="wcQmQYIcNUSv99JXAIk1-19" value="" style="endArrow=classic;html=1;rounded=0;exitX=0.5;exitY=1;exitDx=0;exitDy=0;entryX=0.5;entryY=0;entryDx=0;entryDy=0;" edge="1" parent="1" source="wcQmQYIcNUSv99JXAIk1-15" target="wcQmQYIcNUSv99JXAIk1-16">
          <mxGeometry width="50" height="50" relative="1" as="geometry">
            <mxPoint x="70" y="270" as="sourcePoint" />
            <mxPoint x="120" y="220" as="targetPoint" />
          </mxGeometry>
        </mxCell>
      </root>
    </mxGraphModel>
  </diagram>
</mxfile>
